<svg xmlns="http://www.w3.org/2000/svg" width="800" height="240" viewBox="0 0 800 240">
  <rect width="800" height="240" fill="none"/>
  <g fill="#24174f">
    <rect x="0" y="110" width="55" height="130"/>
    <rect x="70" y="70" width="120" height="170"/>
    <rect x="205" y="42" width="70" height="198"/>
    <rect x="305" y="20" width="96" height="220"/>
    <rect x="430" y="110" width="120" height="130"/>
    <rect x="570" y="70" width="65" height="170"/>
    <rect x="660" y="25" width="140" height="215"/>
  </g>
  <g fill="#ff67e6">
    <rect x="16" y="165" width="8" height="8"/><rect x="32" y="165" width="8" height="8"/>
    <rect x="84" y="95" width="8" height="8"/><rect x="102" y="95" width="8" height="8"/><rect x="120" y="95" width="8" height="8"/>
    <rect x="84" y="130" width="8" height="8"/><rect x="102" y="130" width="8" height="8"/><rect x="120" y="130" width="8" height="8"/>
    <rect x="220" y="88" width="8" height="8"/><rect x="238" y="88" width="8" height="8"/><rect x="256" y="88" width="8" height="8"/>
    <rect x="320" y="58" width="8" height="8"/><rect x="338" y="58" width="8" height="8"/><rect x="356" y="58" width="8" height="8"/><rect x="374" y="58" width="8" height="8"/>
    <rect x="446" y="168" width="8" height="8"/><rect x="464" y="168" width="8" height="8"/><rect x="482" y="168" width="8" height="8"/><rect x="500" y="168" width="8" height="8"/>
    <rect x="586" y="112" width="8" height="8"/><rect x="604" y="112" width="8" height="8"/>
    <rect x="686" y="72" width="8" height="8"/><rect x="704" y="72" width="8" height="8"/><rect x="722" y="72" width="8" height="8"/>
  </g>
  <g fill="#73e5ff">
    <rect x="83" y="160" width="8" height="8"/><rect x="101" y="160" width="8" height="8"/>
    <rect x="220" y="132" width="8" height="8"/><rect x="238" y="132" width="8" height="8"/>
    <rect x="320" y="102" width="8" height="8"/><rect x="338" y="102" width="8" height="8"/><rect x="356" y="102" width="8" height="8"/>
    <rect x="586" y="156" width="8" height="8"/><rect x="604" y="156" width="8" height="8"/>
    <rect x="686" y="120" width="8" height="8"/><rect x="704" y="120" width="8" height="8"/><rect x="722" y="120" width="8" height="8"/>
  </g>
</svg>
