<svg xmlns="http://www.w3.org/2000/svg" viewBox="0 0 430 160" preserveAspectRatio="none">
  <rect width="430" height="160" fill="none"/>
  <g fill="#28145b">
    <rect x="0" y="72" width="32" height="88"/>
    <rect x="22" y="58" width="42" height="102"/>
    <rect x="58" y="70" width="48" height="90"/>
    <rect x="98" y="48" width="38" height="112"/>
    <rect x="130" y="64" width="50" height="96"/>
    <rect x="164" y="76" width="34" height="84"/>
    <rect x="188" y="54" width="34" height="106"/>
    <rect x="220" y="62" width="58" height="98"/>
    <rect x="272" y="80" width="34" height="80"/>
    <rect x="294" y="48" width="54" height="112"/>
    <rect x="342" y="70" width="40" height="90"/>
    <rect x="372" y="58" width="48" height="102"/>
    <rect x="408" y="72" width="22" height="88"/>
  </g>
  <g fill="#4edfff">
    <rect x="10" y="102" width="5" height="5"/><rect x="18" y="102" width="5" height="5"/>
    <rect x="48" y="86" width="5" height="5"/><rect x="56" y="86" width="5" height="5"/>
    <rect x="104" y="98" width="5" height="5"/><rect x="112" y="98" width="5" height="5"/><rect x="120" y="98" width="5" height="5"/>
    <rect x="198" y="84" width="5" height="5"/><rect x="206" y="84" width="5" height="5"/>
    <rect x="248" y="100" width="5" height="5"/><rect x="256" y="100" width="5" height="5"/>
    <rect x="312" y="86" width="5" height="5"/><rect x="320" y="86" width="5" height="5"/><rect x="328" y="86" width="5" height="5"/>
    <rect x="380" y="102" width="5" height="5"/><rect x="388" y="102" width="5" height="5"/>
  </g>
  <g fill="#ff64db">
    <rect x="24" y="112" width="5" height="5"/><rect x="32" y="112" width="5" height="5"/><rect x="40" y="112" width="5" height="5"/>
    <rect x="82" y="118" width="5" height="5"/><rect x="90" y="118" width="5" height="5"/>
    <rect x="154" y="122" width="5" height="5"/><rect x="162" y="122" width="5" height="5"/><rect x="170" y="122" width="5" height="5"/>
    <rect x="274" y="120" width="5" height="5"/><rect x="282" y="120" width="5" height="5"/>
    <rect x="336" y="114" width="5" height="5"/><rect x="344" y="114" width="5" height="5"/><rect x="352" y="114" width="5" height="5"/>
  </g>
</svg>
