<svg xmlns="http://www.w3.org/2000/svg" viewBox="0 0 430 130" fill="none">
  <rect y="60" width="54" height="70" fill="#342173"/>
  <rect x="24" y="36" width="68" height="94" fill="#3A267D"/>
  <rect x="84" y="58" width="56" height="72" fill="#2E1C69"/>
  <rect x="112" y="40" width="74" height="90" fill="#392578"/>
  <rect x="180" y="54" width="52" height="76" fill="#2B185E"/>
  <rect x="214" y="34" width="78" height="96" fill="#3A267A"/>
  <rect x="286" y="52" width="62" height="78" fill="#311F6E"/>
  <rect x="330" y="36" width="80" height="94" fill="#382571"/>
  <rect x="398" y="58" width="32" height="72" fill="#2B185E"/>

  <g fill="#6EE7FF" opacity=".85">
    <rect x="18" y="98" width="8" height="8"/>
    <rect x="30" y="98" width="8" height="8"/>
    <rect x="42" y="84" width="8" height="8"/>
    <rect x="78" y="58" width="10" height="10"/>
    <rect x="122" y="86" width="10" height="10"/>
    <rect x="136" y="86" width="10" height="10"/>
    <rect x="150" y="58" width="10" height="10"/>
    <rect x="198" y="112" width="8" height="8"/>
    <rect x="226" y="62" width="10" height="10"/>
    <rect x="242" y="62" width="10" height="10"/>
    <rect x="298" y="82" width="10" height="10"/>
    <rect x="312" y="82" width="10" height="10"/>
    <rect x="350" y="56" width="10" height="10"/>
    <rect x="364" y="56" width="10" height="10"/>
    <rect x="378" y="56" width="10" height="10"/>
  </g>
  <g fill="#FF7DD7" opacity=".9">
    <rect x="40" y="76" width="10" height="10"/>
    <rect x="54" y="76" width="10" height="10"/>
    <rect x="68" y="76" width="10" height="10"/>
    <rect x="128" y="100" width="10" height="10"/>
    <rect x="142" y="100" width="10" height="10"/>
    <rect x="156" y="100" width="10" height="10"/>
    <rect x="234" y="92" width="10" height="10"/>
    <rect x="248" y="92" width="10" height="10"/>
    <rect x="336" y="96" width="10" height="10"/>
    <rect x="350" y="96" width="10" height="10"/>
    <rect x="390" y="76" width="10" height="10"/>
    <rect x="404" y="76" width="10" height="10"/>
  </g>
  <rect y="126" width="430" height="4" fill="#66E4FF" opacity=".7"/>
</svg>
