<svg xmlns="http://www.w3.org/2000/svg" width="800" height="260" viewBox="0 0 800 260">
  <rect width="800" height="260" fill="none"/>
  <g fill="#35206b">
    <rect x="20" y="120" width="60" height="140"/>
    <rect x="110" y="80" width="80" height="180"/>
    <rect x="220" y="100" width="50" height="160"/>
    <rect x="300" y="60" width="88" height="200"/>
    <rect x="420" y="92" width="70" height="168"/>
    <rect x="540" y="70" width="82" height="190"/>
    <rect x="650" y="110" width="45" height="150"/>
    <rect x="715" y="88" width="58" height="172"/>
  </g>
  <g fill="#7fe6ff">
    <rect x="35" y="148" width="8" height="8"/><rect x="51" y="148" width="8" height="8"/><rect x="35" y="170" width="8" height="8"/>
    <rect x="130" y="108" width="10" height="10"/><rect x="155" y="108" width="10" height="10"/><rect x="130" y="138" width="10" height="10"/>
    <rect x="325" y="96" width="9" height="9"/><rect x="346" y="96" width="9" height="9"/><rect x="367" y="96" width="9" height="9"/>
    <rect x="560" y="100" width="10" height="10"/><rect x="585" y="100" width="10" height="10"/><rect x="560" y="130" width="10" height="10"/>
    <rect x="729" y="118" width="9" height="9"/><rect x="746" y="118" width="9" height="9"/>
  </g>
</svg>
