<svg xmlns="http://www.w3.org/2000/svg" viewBox="0 0 160 120" fill="none">
  <defs>
    <linearGradient id="body" x1="16" x2="128" y1="20" y2="104" gradientUnits="userSpaceOnUse">
      <stop offset="0" stop-color="#3349B7"/>
      <stop offset="1" stop-color="#162063"/>
    </linearGradient>
    <linearGradient id="visor" x1="88" x2="128" y1="30" y2="52" gradientUnits="userSpaceOnUse">
      <stop offset="0" stop-color="#7EF3FF"/>
      <stop offset="1" stop-color="#193C87"/>
    </linearGradient>
    <linearGradient id="pack" x1="48" x2="80" y1="40" y2="88" gradientUnits="userSpaceOnUse">
      <stop offset="0" stop-color="#2B3A9B"/>
      <stop offset="1" stop-color="#151F56"/>
    </linearGradient>
    <radialGradient id="flame" cx="0" cy="0" r="1" gradientTransform="translate(36 86) rotate(-18) scale(34 18)" gradientUnits="userSpaceOnUse">
      <stop offset="0" stop-color="#FFF9C8"/>
      <stop offset="0.33" stop-color="#FFCC62"/>
      <stop offset="0.68" stop-color="#FF8A2C"/>
      <stop offset="1" stop-color="#FF6A00" stop-opacity="0"/>
    </radialGradient>
  </defs>

  <ellipse cx="24" cy="92" rx="28" ry="14" fill="url(#flame)" transform="rotate(-18 24 92)"/>
  <path d="M44 84c-14 4-24 8-34 16 18-2 33-4 47-7" fill="#7FE1FF" opacity=".7"/>

  <path d="M60 34l-18 10 3 38 22 1 13-15-2-31-18-5z" fill="url(#pack)"/>
  <path d="M57 46l15 1" stroke="#7BE6FF" stroke-width="4" stroke-linecap="round" opacity=".8"/>

  <path d="M72 24c16-6 35 0 44 13 10 15 8 35-5 47l-19 18-28-4-16-22 2-25 22-27z" fill="url(#body)"/>
  <path d="M98 22c14 1 26 11 30 25" stroke="#647EFF" stroke-width="4" stroke-linecap="round" opacity=".6"/>
  <path d="M82 38c11-8 26-8 37 0 2 1 4 3 5 5-1 10-7 18-16 22-13 5-28 1-36-10-2-3-4-7-4-11 3-2 9-5 14-6z" fill="url(#visor)"/>
  <path d="M78 64l-16 8 10 14 13-5-7-17z" fill="#1F2F82"/>
  <path d="M103 76l15 10-6 12-18-7 9-15z" fill="#22328D"/>
  <path d="M78 77l-7 18 11 5 8-16-12-7z" fill="#18245F"/>
  <path d="M99 83l5 19 13-4-7-19-11 4z" fill="#192664"/>
  <circle cx="88" cy="66" r="6" fill="#79EAFF" opacity=".85"/>
  <path d="M58 78l-8 6" stroke="#A3B7FF" stroke-width="4" stroke-linecap="round"/>
  <path d="M112 60l14-2" stroke="#A3B7FF" stroke-width="4" stroke-linecap="round"/>
</svg>
