<svg xmlns="http://www.w3.org/2000/svg" viewBox="0 0 128 128">
  <defs>
    <linearGradient id="hair" x1="0" x2="1">
      <stop offset="0" stop-color="#ffd877"/>
      <stop offset="1" stop-color="#ffb53f"/>
    </linearGradient>
    <linearGradient id="suit" x1="0" x2="1">
      <stop offset="0" stop-color="#30214f"/>
      <stop offset="1" stop-color="#5842b8"/>
    </linearGradient>
    <linearGradient id="pack" x1="0" x2="1">
      <stop offset="0" stop-color="#5fdcff"/>
      <stop offset="1" stop-color="#ff48d7"/>
    </linearGradient>
  </defs>
  <path d="M26 39c9-18 30-22 45-16 8 3 14 9 18 16-4-2-12-1-17 1 7 6 12 14 13 24-3-4-10-8-15-9 1 12-4 22-13 29-16-3-27-12-33-27-4-8-3-16 2-18z" fill="url(#hair)"/>
  <ellipse cx="58" cy="53" rx="18" ry="16" fill="#ffd7be"/>
  <path d="M43 51c5-7 24-9 34-1-2 8-10 13-18 13s-15-4-16-12z" fill="#1f1933"/>
  <path d="M29 64c13-15 37-13 49-2 8 7 10 15 6 28-9 11-17 18-25 20-13-8-23-15-29-26-4-7-4-14-1-20z" fill="url(#suit)"/>
  <rect x="18" y="49" width="18" height="32" rx="8" fill="#2d2648"/>
  <rect x="26" y="55" width="8" height="19" rx="3" fill="url(#pack)"/>
  <path d="M67 79l18 10-6 11-19-11z" fill="#2d2648"/>
  <path d="M42 85l-13 17 8 7 13-15z" fill="#2d2648"/>
  <path d="M60 88l7 24 10-2-5-24z" fill="#1e1730"/>
  <circle cx="49" cy="50" r="3" fill="#fff"/>
</svg>
